<svg xmlns="http://www.w3.org/2000/svg" xmlns:xlink="http://www.w3.org/1999/xlink" id="Layer_1" x="0px" y="0px" viewBox="0 0 658.9 223.3" style="enable-background:new 0 0 658.9 223.3;" xml:space="preserve"><style type="text/css">	.st0{fill-rule:evenodd;clip-rule:evenodd;fill:#DD052B;}	.st1{fill-rule:evenodd;clip-rule:evenodd;}</style><g>	<path class="st0" d="M167.8,111.7h53.4v-18h-53.4V111.7L167.8,111.7z M91.5,190.8V56.7H52.4v36.7H17.5V22.7h620.7v70.7h-34.9V56.9  l-476.9-0.2v134.1H91.5L91.5,190.8z M148.6,127.7V76.8h92v50.9H148.6L148.6,127.7z M380.7,127.7V76.8h86.1v10.9h-66.4v10.4h38.3  v8.2h-38.3v10.9h66.4v10.5H380.7L380.7,127.7z M554.4,127.7L510.4,93v34.7H489V77h24.8l44.4,36.3V76.8h21.6v50.9H554.4L554.4,127.7  z M297.8,127.7V93.1H265V76.8h91.4v16.4h-33v34.5H297.8L297.8,127.7z"></path>	<path class="st1" d="M210.8,170h4.6c3.1,0,4.8,0,6-0.3c3.4-0.7,4.1-3,4.2-3.5c0.2-0.9,0.2-1.6-0.2-2c-1.3-1.5-5.2-1.5-8-1.5l0,0h-5  L210.8,170L210.8,170z M237.6,192.2H220l-0.1-0.6c-0.4-2-0.2-4.5,0-7.2l0,0l0.1-1.2c0.2-2.1,0.2-3.4-0.4-4.1c-0.6-0.7-2.2-1-5-1  l0,0H209l-3.2,14.1h-16.3l8.6-37.6h25.2c9.6,0,13.4,0.4,16.2,2.7c2.3,1.9,3.1,4.5,2.3,7.7c-1,4.5-4.4,6.3-6.9,7.3  c-1.3,0.5-2.4,0.9-3.5,1.1c5.3,1.1,5.5,4.1,5.5,9l0,0v0.8c-0.1,2.4-0.2,5.8,0.5,8l0,0L237.6,192.2L237.6,192.2z M265.8,176.8h12  l-2.8-12.9L265.8,176.8L265.8,176.8z M300.3,192.2h-18.2l-2-7.3h-20.3l-5.3,7.3h-16.6l30.5-37.6h18.8L300.3,192.2L300.3,192.2z   M356.6,192.2h-20.9l-11.2-26.4l-5.9,26.4H304l8.7-37.6h21.4l11,25.2l5.7-25.2h14.4L356.6,192.2L356.6,192.2z M387.6,192.9  c-6.3,0-14.8-0.8-18.8-4.5c-3.4-3.1-2.7-6.9-2.4-8.5l0,0l0.1-0.6l0.6-0.2h14.8h0.9l-0.2,0.9c-0.1,0.7-0.3,2,0.5,2.9  c1,1.2,3.2,1.8,6.5,1.8c2.2,0,7.4-0.3,8.1-3.5c0.2-0.7,0-1.1-0.1-1.2c-0.4-0.6-1.4-1-3.1-1.3l0,0l-12.5-2.3  c-2.7-0.5-8.3-1.5-10.6-5.2c-1.1-1.6-1.3-3.4-0.9-5.6c1.3-5.7,8.8-11.9,25.7-11.9c9.8,0,15.9,1.6,18.6,5c2.2,2.7,1.5,6,1.2,7.4l0,0  l-0.2,0.5h-0.6h-14.9h-0.9l0.2-0.9c0.2-0.5,0.4-1.7-0.3-2.7c-0.7-0.9-2.4-1.4-4.8-1.4c-4.2,0-6.8,1.6-7.1,3.2  c-0.2,0.5-0.1,0.9,0.2,1.3c0.6,0.9,2.6,1.3,3.8,1.6l0,0l9.5,1.8c5,0.9,10.5,2,12.9,5.5c1,1.6,1.3,3.5,0.8,5.8  C412.7,188.5,403,192.9,387.6,192.9L387.6,192.9z M440.2,170.7h5.6c3.5,0,8.8,0,9.8-4.3c0.2-0.9,0.1-1.6-0.3-2.2  c-1.2-1.6-5.3-1.6-7.4-1.6l0,0h-5.9L440.2,170.7L440.2,170.7z M435.3,192.1h-0.5h-14.8H419l0.2-0.9l8.3-36.1l0.2-0.5h0.5h24.5  c4.1,0,9.7,0,13.8,1.9c4.7,2.2,6.7,5.9,5.6,10.6c-1.5,6.8-8.6,9.7-10.7,10.4c-4.6,1.6-11.3,1.6-14.1,1.6l0,0l-9,0.1l-2.8,12.4  L435.3,192.1L435.3,192.1z M505.1,162.3c-7.8,0-12.7,3.8-14.4,11.2c-0.8,3.4-0.5,6.1,0.9,7.8c1.5,1.8,4.1,2.7,8,2.7  c7.7,0,12.6-3.7,14.2-11c1.1-4.8,0-7.1-1.1-8.5C511.1,162.7,507.6,162.3,505.1,162.3L505.1,162.3z M497.8,192.9  c-10.2,0-17.8-2.6-21.6-7.3c-2.6-3.2-3.4-7.3-2.2-12.3c0.6-2.9,3-10,10.9-14.7c7.5-4.5,17.2-5.1,22.3-5.1c10.2,0,17.2,2.3,20.9,7  c3.4,4.3,3.1,9.5,2.3,13C527.2,187.9,511.5,192.9,497.8,192.9L497.8,192.9z M554.3,170h4.6c3.1,0,4.8,0,6-0.3  c3.4-0.7,4.1-3,4.2-3.5c0.2-0.9,0.2-1.6-0.2-2c-1.2-1.5-5.2-1.5-8-1.5l0,0H556L554.3,170L554.3,170z M581,192.2h-17.5l-0.2-0.6  c-0.3-2-0.2-4.5,0.1-7.3l0,0v-1c0.2-2.1,0.3-3.4-0.3-4.1c-0.6-0.7-2.2-1-5.1-1l0,0h-5.5l-3.3,14.1h-16.3l8.7-37.6h25.2  c9.7,0,13.4,0.4,16.3,2.7c2.3,1.9,3,4.5,2.3,7.7c-1,4.5-4.1,6.2-6.8,7.3c-1.2,0.5-2.5,0.9-3.6,1.1c5.4,1.1,5.6,4.1,5.5,9l0,0v0.9  c-0.1,2.4-0.2,5.8,0.4,8l0,0L581,192.2L581,192.2z M614.6,192.2h-16.4l6.6-29h-16.2l2-8.6h49.1l-2,8.6h-16.6L614.6,192.2  L614.6,192.2z M379.4,129V75.4h88.8V89h-66.4v7.7H440v10.9h-38.3v8.3h66.4V129H379.4L379.4,129z M169.1,110.4h50.8V95h-50.8V110.4  L169.1,110.4z M90.1,192.2V58H53.7v36.7H16.1V21.4h623.4v73.4h-37.6V58.2L127.7,58v134.1H90.1L90.1,192.2z M554,129l-42.2-33.3V129  h-24.1V75.7h26.6l42.6,34.8v-35h24.2V129H554L554,129z M147.2,129V75.4H242V129H147.2L147.2,129z M296.4,129V94.4h-32.7v-19h94.1  v19.1h-33V129H296.4L296.4,129z M166.5,113h56.2V92.4h-56.2V113L166.5,113z M92.8,189.5V55.4H51.1v36.7H18.9V24h618v68.1h-32.3  V55.6L125,55.4v134.1H92.8L92.8,189.5z M150,126.4V78.2h89.4v48.2H150L150,126.4z M382,126.4V78.2h83.4v8.2H399v13h38.3v5.5H399  v13.7h66.5v7.8H382L382,126.4z M554.9,126.4l-45.9-36.2v36.2h-18.8v-48h23l46.2,37.8v-38h18.8v48.2H554.9L554.9,126.4z   M299.1,126.4V91.8h-32.8V78.2h88.8v13.7h-33v34.5H299.1L299.1,126.4z M168.9,192.2h-16.4l6.6-29h-16.2l2-8.6H194l-2,8.6h-16.6  L168.9,192.2L168.9,192.2z"></path></g></svg>